<?xml version="1.0" standalone="no"?>
<!DOCTYPE svg PUBLIC "-//W3C//DTD SVG 20010904//EN"
 "http://www.w3.org/TR/2001/REC-SVG-20010904/DTD/svg10.dtd">
<svg version="1.0" xmlns="http://www.w3.org/2000/svg"
 width="956.000000pt" height="980.000000pt" viewBox="0 0 956.000000 980.000000"
 preserveAspectRatio="xMidYMid meet">

<g transform="translate(0.000000,980.000000) scale(0.100000,-0.100000)"
fill="#000000" stroke="none">
<path d="M4450 9789 c-1348 -91 -2625 -795 -3453 -1901 -195 -262 -326 -476
-477 -783 -271 -550 -422 -1079 -492 -1720 -18 -162 -18 -808 0 -970 94 -862
364 -1614 823 -2295 773 -1150 1989 -1909 3325 -2079 1121 -143 2222 109 3164
724 1131 737 1906 1927 2140 3281 56 324 65 443 65 859 -1 414 -9 520 -65 850
-175 1013 -650 1935 -1371 2655 -974 974 -2292 1471 -3659 1379z m530 -259
c1044 -53 1977 -434 2766 -1131 641 -567 1129 -1344 1373 -2191 70 -243 123
-510 157 -798 21 -184 30 -654 15 -850 -79 -1030 -459 -1956 -1121 -2730 -208
-243 -531 -540 -792 -727 -287 -206 -689 -424 -1013 -549 -138 -54 -157 -58
-231 -59 -72 0 -85 3 -129 30 -35 22 -56 44 -74 80 l-26 50 3 680 c4 687 -1
833 -33 988 -37 179 -112 345 -205 456 -33 39 -60 73 -60 75 0 2 30 6 67 10
315 32 693 136 948 261 356 173 603 413 779 755 187 364 265 769 253 1302 -4
199 -9 251 -31 355 -62 292 -172 528 -352 759 l-72 93 24 76 c94 297 81 696
-34 1040 l-37 110 -99 3 c-256 7 -610 -131 -1022 -399 l-121 -79 -147 35
c-369 89 -658 119 -1071 112 -370 -7 -616 -38 -928 -118 l-118 -31 -122 80
c-285 185 -539 308 -765 368 -79 22 -121 27 -227 28 l-130 1 -23 -65 c-39
-108 -80 -278 -98 -405 -30 -222 -7 -516 55 -698 l20 -58 -73 -93 c-180 -231
-289 -466 -352 -759 -23 -108 -27 -151 -31 -377 -4 -193 -1 -293 11 -410 74
-698 336 -1189 804 -1503 263 -177 649 -312 1057 -372 61 -8 125 -18 143 -21
l33 -5 -38 -42 c-97 -105 -170 -251 -214 -424 -16 -63 -29 -124 -29 -134 0
-21 -29 -36 -160 -79 -238 -78 -475 -79 -675 -1 -185 71 -317 193 -477 436
-80 122 -126 179 -189 240 -182 174 -359 252 -549 243 -94 -5 -144 -24 -162
-63 -23 -50 53 -134 224 -249 151 -101 307 -314 414 -566 78 -183 88 -203 135
-275 150 -232 383 -384 689 -451 125 -28 450 -26 610 4 63 11 117 18 120 16 3
-3 5 -198 5 -433 l0 -427 -30 -49 c-43 -69 -105 -100 -200 -99 -59 0 -92 9
-208 53 -1538 581 -2660 1988 -2906 3641 -38 258 -46 379 -46 710 0 331 8 452
46 710 165 1108 728 2126 1579 2855 744 637 1692 1016 2665 1064 222 12 215
12 425 1z"/>
</g>
</svg>
