<?xml version="1.0" encoding="utf-8"?>
<!-- Generator: Adobe Illustrator 16.0.0, SVG Export Plug-In . SVG Version: 6.00 Build 0)  -->
<!DOCTYPE svg PUBLIC "-//W3C//DTD SVG 1.1//EN" "http://www.w3.org/Graphics/SVG/1.1/DTD/svg11.dtd">
<svg version="1.1" id="Capa_1" xmlns="http://www.w3.org/2000/svg" xmlns:xlink="http://www.w3.org/1999/xlink" x="0px" y="0px"
	 width="500px" height="500px" viewBox="0 0 500 500" enable-background="new 0 0 500 500" xml:space="preserve">
<g>
	<path fill="#1A171B" d="M359.004,250.325c-11.779-9.675-24.15-19.105-37.171-28.361c-0.851-23.935-2.725-46.615-5.666-68.042
		c23.502-8.406,43.256-12.616,59.231-12.616c24.338,0,36.536,8.623,36.536,25.838C411.935,188.584,394.286,216.311,359.004,250.325z
		 M295.98,72.63c-12.169,0-18.269,6.315-18.269,18.903c0,13.02,6.1,19.523,18.269,19.523c12.17,0,18.283-6.503,18.283-19.523
		C314.264,78.945,308.15,72.63,295.98,72.63z M402.477,285.607c-11.333,0-17,5.883-17,17.648c0,12.184,5.667,18.268,17,18.268
		c11.347,0,17.042-6.084,17.042-18.268C419.519,291.49,413.823,285.607,402.477,285.607z M425.806,317.746
		c-1.701-2.092-3.374-3.158-5.047-3.158c-4.21,0-8.392,4.643-12.616,13.871c5.062,13.02,5.062,23.314,0,30.885
		c-5.465,8.406-16.365,12.588-32.744,12.588c-16.408,0-36.565-4.398-60.501-13.223c2.941-20.994,5.032-43.27,6.287-66.787
		c13.467-9.66,26.04-19.336,37.819-28.996c5.465,5.465,13.438,14.072,23.949,25.838l8.19-9.457
		c-7.988-7.557-16.38-15.111-25.204-22.666c56.694-48.735,85.069-86.959,85.069-114.701c0-17.634-12.197-26.458-36.551-26.458
		c-25.218,0-58.381,9.041-99.561,27.093c-1.701-11.751-3.777-22.882-6.286-33.379l-11.362,6.906
		c1.673,6.719,4.398,17.014,8.19,30.885c-18.052,7.988-36.537,17.432-55.439,28.361c-16.798-9.675-33.408-18.269-49.787-25.838
		c12.602-58.395,30.25-87.578,52.944-87.578c7.556,0,14.692,3.777,21.427,11.318c0.403,0.433,1.672,0.649,3.777,0.649
		c10.915,0,16.379-3.576,16.379-10.728c0-8.795-4.858-19.104-14.505-30.855c-9.66-11.766-18.7-17.663-27.078-17.663
		c-17.244,0-32.153,18.283-44.755,54.82c-7.569,21.858-13.236,47.062-17.014,75.611c-44.121-19.725-79.187-29.602-105.227-29.602
		c-24.8,0-37.171,8.824-37.171,26.458c0,27.742,28.347,65.965,85.069,114.701c-5.883,5.031-14.707,13.221-26.473,24.568
		c2.509,1.254,5.032,4.629,7.556,10.078c10.093-11.75,18.902-21.223,26.472-28.361c13.438,11.348,27.93,22.479,43.473,33.395
		c1.254,21.008,3.359,41.18,6.301,60.5c-26.458,10.078-48.734,15.111-66.787,15.111c-26.891,0-38.642-10.699-35.297-32.125
		c-3.777-7.557-8.392-11.348-13.87-11.348c-4.196,0-8.392,2.105-12.588,6.301c-9.242,14.289-13.855,26.459-13.855,36.551
		c0,17.217,12.371,25.838,37.171,25.838c26.458,0,62.144-10.092,107.115-30.25c4.21,25.219,10.079,48.115,17.663,68.676
		c12.169,33.191,26.241,49.773,42.217,49.773c26.444,0,46.414-38.627,59.837-115.926c42.017,18.484,75.813,27.727,101.464,27.727
		c24.354,0,36.551-8.621,36.551-25.838C451.009,357.439,442.617,339.604,425.806,317.746z M95.606,286.875
		c-13.438,0-20.172,6.504-20.172,19.523s6.733,19.537,20.172,19.537c13.02,0,19.537-6.518,19.537-19.537
		S108.626,286.875,95.606,286.875z M257.556,179.76c17.229-9.228,33.812-16.812,49.787-22.695
		c3.345,18.499,5.651,38.238,6.921,59.246C296.183,203.291,277.294,191.093,257.556,179.76z M321.833,282.449
		c0.404-10.914,0.62-21.814,0.62-32.745v-18.283c10.497,8.406,20.388,16.812,29.63,25.219
		C342.841,265.031,332.748,273.654,321.833,282.449z M192.023,211.885c1.254-18.47,3.359-36.119,6.286-52.931
		c14.303,5.897,29.01,12.833,44.121,20.806C225.2,189.839,208.402,200.566,192.023,211.885z M314.264,288.131
		c-20.59,15.125-42.016,28.779-64.264,40.977c-19.739-10.93-38.872-23.127-57.343-36.564c-1.269-13.857-1.889-27.943-1.889-42.218
		c0-10.079,0.188-19.725,0.62-28.981c18.902-13.871,38.439-26.458,58.611-37.82c22.681,12.616,44.309,26.688,64.897,42.232
		c0.404,7.988,0.62,16.178,0.62,24.569C315.518,262.926,315.1,275.527,314.264,288.131z M304.819,354.916
		c-15.14-5.867-30.885-13.02-47.264-21.41c19.306-11.334,38.007-23.314,56.088-35.932
		C311.956,318.178,309.015,337.283,304.819,354.916z M184.468,217.551c-15.14,10.511-29.414,21.44-42.853,32.773
		c-35.296-34.014-52.916-61.74-52.916-83.181c0-17.216,11.938-25.838,35.902-25.838c17.62,0,39.262,4.845,64.913,14.505
		C186.977,175.55,185.304,196.14,184.468,217.551z M147.902,256.641c11.348-10.094,23.531-20.172,36.565-30.251
		c-0.418,7.988-0.635,15.76-0.635,23.315c0,12.602,0.217,25.002,0.635,37.17C171.434,276.797,159.25,266.719,147.902,256.641z
		 M200.848,353.027c-3.36-15.961-5.883-32.945-7.57-51.027c15.962,10.93,32.37,21.412,49.153,31.506
		C228.142,341.074,214.285,347.578,200.848,353.027z M253.157,438.111c-21.008,0-37.632-25.217-49.801-75.625
		c15.139-7.57,30.683-15.744,46.644-24.584c18.037,10.08,35.484,19.119,52.296,27.094
		C290.098,413.744,273.732,438.111,253.157,438.111z"/>
	<g>
		<path fill="#1A171B" d="M280.235,238.458c0,17.302-14.015,31.331-31.316,31.331c-17.317,0-31.347-14.029-31.347-31.331
			c0-17.302,14.029-31.317,31.347-31.317C266.221,207.141,280.235,221.156,280.235,238.458z"/>
		<path fill="#FFFFFF" d="M273.675,229.533c0,11.088-11.419,20.071-25.535,20.071c-14.072,0-25.506-8.983-25.506-20.071
			c0-11.102,11.434-20.07,25.506-20.07C262.256,209.462,273.675,218.431,273.675,229.533z"/>
	</g>
	<g>
		<path fill="#1A171B" d="M267.691,271.881c0,17.287-14.015,31.316-31.316,31.316c-17.288,0-31.317-14.029-31.317-31.316
			c0-17.316,14.029-31.332,31.317-31.332C253.677,240.549,267.691,254.564,267.691,271.881z"/>
		<path fill="#FFFFFF" d="M261.146,262.941c0,11.088-11.419,20.084-25.521,20.084s-25.521-8.996-25.521-20.084
			s11.42-20.071,25.521-20.071S261.146,251.854,261.146,262.941z"/>
	</g>
	<g>
		<path fill="#1A171B" d="M309.477,263.518c0,17.303-14.029,31.332-31.332,31.332c-17.302,0-31.331-14.029-31.331-31.332
			c0-17.302,14.029-31.317,31.331-31.317C295.447,232.2,309.477,246.215,309.477,263.518z"/>
		<path fill="#FFFFFF" d="M302.901,254.592c0,11.088-11.419,20.072-25.521,20.072s-25.507-8.984-25.507-20.072
			c0-11.102,11.405-20.07,25.507-20.07S302.901,243.49,302.901,254.592z"/>
	</g>
</g>
</svg>
